<?xml version="1.0" encoding="utf-8"?>
<!-- Generator: Adobe Illustrator 25.4.1, SVG Export Plug-In . SVG Version: 6.00 Build 0)  -->
<svg version="1.1" id="Layer_1" xmlns="http://www.w3.org/2000/svg" xmlns:xlink="http://www.w3.org/1999/xlink" x="0px" y="0px"
	 viewBox="0 0 24 24" style="enable-background:new 0 0 24 24;" xml:space="preserve">
<style type="text/css">
	.st0{fill:#FFFFFF;}
</style>
<g id="Group_18" transform="translate(-1526 -885)">
	<path id="Path_76" class="st0" d="M1549.2,902.3c0,0-4.8-3.5-6.1-3.2c-0.6,0.1-1,0.5-1.7,1.4c-0.1,0.1-0.4,0.5-0.6,0.7
		c-0.5-0.1-0.9-0.3-1.3-0.5c-2.2-1.1-4-2.9-5.1-5.1c-0.2-0.4-0.4-0.9-0.5-1.3c0.2-0.2,0.6-0.5,0.7-0.6c0.8-0.7,1.3-1.1,1.4-1.7
		c0.2-1.3-3.2-6.1-3.2-6.1c-0.3-0.4-0.8-0.7-1.4-0.8c-1.4,0-5.4,5.2-5.4,6c0,0,0.1,5.2,6.4,11.6c6.4,6.3,11.5,6.4,11.6,6.4
		c0.9,0,6-4,6-5.4C1550,903.1,1549.7,902.6,1549.2,902.3z"/>
	<path id="Path_77" class="st0" d="M1538.9,891.4c2.6,0,4.6,2.1,4.6,4.6c0,0.4,0.3,0.8,0.8,0.8c0.4,0,0.8-0.3,0.8-0.8
		c0-3.4-2.8-6.2-6.2-6.2c-0.4,0-0.8,0.3-0.8,0.8S1538.5,891.4,1538.9,891.4z"/>
	<path id="Path_78" class="st0" d="M1539.2,887.3c4.7,0,8.5,3.8,8.5,8.5c0,0.4,0.3,0.8,0.8,0.8c0.4,0,0.8-0.3,0.8-0.8l0,0
		c0-5.6-4.5-10-10.1-10.1c-0.4,0-0.8,0.3-0.8,0.8S1538.7,887.3,1539.2,887.3z"/>
</g>
</svg>
